<svg width="1024" height="294" viewBox="0 0 1024 294" fill="none" xmlns="http://www.w3.org/2000/svg">
<g clip-path="url(#clip0_301_4362)">
<path d="M18.7891 157.249C29.4276 166.344 45.3854 170.87 66.6624 170.828C87.9395 170.785 103.897 166.494 114.536 157.957C120.181 153.114 124.638 147.037 127.561 140.197C130.484 133.357 131.796 125.936 131.394 118.508C131.551 111 129.779 103.577 126.247 96.9502C122.591 90.4474 117.08 85.1822 110.418 81.8272C106.482 79.8677 102.366 78.2944 98.1276 77.1294C92.4008 75.3275 63.7669 67.5408 60.8713 66.7686C45.0422 62.5856 34.8112 57.3087 34.7469 47.8487C35.5834 29.6368 52.5707 28.1567 61.9652 28.1567C70.0747 27.7276 78.113 29.8669 84.9367 34.2702C87.8353 36.301 90.1786 39.0261 91.7523 42.1964C93.326 45.3666 94.0799 48.8809 93.9451 52.4178H126.118C126.093 45.1354 124.545 37.9386 121.576 31.2893C118.606 24.6399 114.279 18.6848 108.873 13.806C98.578 5.31134 83.6497 0.935333 64.7964 0.935333C44.3988 0.935333 28.9558 5.18264 18.2743 13.806C13.0251 18.169 8.85406 23.6853 6.08614 29.925C3.31822 36.1647 2.02819 42.9593 2.31658 49.7793C1.89035 56.898 3.31382 64.0058 6.44848 70.4111C9.58314 76.8165 14.3223 82.3013 20.2047 86.3319C30.2022 91.6743 40.9693 95.4302 52.1203 97.465L64.9894 100.232C86.9957 105.573 99.6075 112.395 99.2214 123.271C99.3042 126.207 98.6602 129.118 97.3468 131.745C96.0334 134.372 94.0912 136.634 91.693 138.329C84.9661 142.086 77.3168 143.87 69.6223 143.477C60.5884 143.998 51.6103 141.753 43.884 137.042C40.5999 134.752 37.8953 131.727 35.9851 128.208C34.075 124.689 33.0121 120.773 32.8809 116.771H0.000125367C-0.0635725 124.48 1.5895 132.106 4.83939 139.096C8.08928 146.086 12.8545 152.265 18.7891 157.185" fill="white"/>
<path d="M223.988 106.41C223.988 94.1186 221.736 68.1843 196.577 68.1843C172.769 68.1843 170.195 93.5394 170.195 106.41C170.195 139.037 188.726 143.22 197.542 143.22C220.32 143.22 223.988 119.023 223.988 106.41ZM170.195 198.885C170.212 203.096 168.565 207.143 165.612 210.144C162.659 213.146 158.64 214.858 154.43 214.909H138.151V97.465C140.017 66.1894 151.341 41.2847 198.829 39.5472C207.107 39.3259 215.337 40.8831 222.963 44.1136C230.589 47.3441 237.433 52.1728 243.034 58.2739C252.687 71.8705 257.43 88.346 256.483 104.994C257.303 122.154 252.316 139.09 242.327 153.066C238.14 158.759 232.645 163.363 226.307 166.487C219.969 169.612 212.972 171.167 205.907 171.021C193.078 171.447 180.471 167.599 170.066 160.081V198.692" fill="white"/>
<path d="M322.63 142.834C314.523 142.448 299.015 140.839 297.6 113.746H378.933V103.9C378.418 83.5004 373.528 68.313 363.94 56.8582C358.309 51.0749 351.496 46.5748 343.967 43.6651C336.438 40.7553 328.37 39.5044 320.314 39.9977C312.495 39.5752 304.682 40.9175 297.453 43.9253C290.224 46.9331 283.765 51.5292 278.553 57.373C268.73 68.6992 263.818 84.3584 263.818 104.351C263.818 125.33 268.773 141.418 278.811 152.68C284.028 158.516 290.489 163.107 297.716 166.115C304.944 169.122 312.754 170.468 320.571 170.055C333.629 170.555 346.491 166.757 357.184 159.244C367.167 151.927 374.18 141.258 376.938 129.191H348.883C344.701 140.968 334.084 143.413 322.63 142.834ZM321.215 67.2834C341.419 67.2834 344.508 84.1439 345.151 92.6385H297.278C297.278 92.6385 296.892 67.7339 321.215 67.2834Z" fill="white"/>
<path d="M468.631 129.255H499.453C496.44 141.372 489.313 152.065 479.29 159.507C469.266 166.949 456.969 170.678 444.501 170.055C397.915 170.055 386.59 132.666 386.59 108.083C386.59 83.5004 390.772 41.5421 442.7 40.062C490.637 39.3541 498.552 80.8619 498.552 80.8619H465.671C465.671 80.8619 462.518 66.8329 442.957 67.2834C423.396 67.7339 418.248 86.0745 418.248 103.9C418.248 121.726 422.559 143.156 443.986 143.156C464.577 143.799 466.443 132.602 468.245 129.577" fill="white"/>
<path d="M539.283 76.2285H558.586V43.344H539.283V22.2362C539.408 20.1513 539.099 18.063 538.374 16.1041C537.65 14.1452 536.525 12.3585 535.073 10.8575C533.621 9.35655 531.872 8.17419 529.938 7.38556C528.004 6.59694 525.927 6.2193 523.84 6.27664H506.981V144.25C506.981 158.665 512.515 167.224 524.612 167.224H539.283V76.2285Z" fill="white"/>
<path d="M592.947 167.481V103.128C592.61 99.4309 593.005 95.7034 594.109 92.1589C595.213 88.6144 597.005 85.3222 599.382 82.4707C602.157 80.116 605.372 78.3349 608.84 77.2303C612.308 76.1257 615.96 75.7196 619.586 76.0354H630.589V42.6361C620.684 42.4815 610.801 43.6063 601.183 45.9825C593.637 48.095 586.547 51.5859 580.271 56.279C573.773 61.6227 568.709 68.501 565.536 76.2928C561.667 86.0512 559.828 96.496 560.131 106.989V167.545L592.947 167.481Z" fill="white"/>
<path d="M639.791 42.8292H672.672V122.627C672.462 125.515 672.875 128.414 673.883 131.128C674.891 133.843 676.471 136.308 678.515 138.359C680.559 140.409 683.02 141.996 685.731 143.013C688.442 144.029 691.339 144.451 694.227 144.25C697.066 144.464 699.919 144.086 702.604 143.138C705.288 142.191 707.747 140.695 709.822 138.746C711.898 136.797 713.546 134.438 714.66 131.818C715.775 129.198 716.333 126.375 716.298 123.528V58.3383C716.298 58.3383 717.392 42.8292 731.612 42.8292H748.664V116.771C748.664 120.761 752.975 169.862 694.227 169.669C635.48 169.476 640.177 120.053 639.791 117.093V42.8292Z" fill="white"/>
<path d="M867.318 167.867H834.759V87.6833C835.051 84.7181 834.673 81.7251 833.653 78.9256C832.632 76.1262 830.996 73.5917 828.865 71.5097C826.734 69.4277 824.162 67.8512 821.34 66.8969C818.517 65.9426 815.517 65.6348 812.559 65.9963C809.66 65.7963 806.752 66.2201 804.03 67.2392C801.309 68.2584 798.837 69.8491 796.782 71.9043C794.727 73.9594 793.137 76.4312 792.118 79.1531C791.099 81.875 790.675 84.7838 790.875 87.6833V167.867H757.865V94.3117C757.865 72.9465 764.3 59.8828 774.595 51.3882C785.354 43.5555 798.352 39.4029 811.659 39.5472C818.802 39.5614 825.923 40.3599 832.893 41.9283C839.832 43.5585 846.291 46.7992 851.746 51.3882C856.628 47.192 862.423 44.1949 868.669 42.6362C875.14 40.7708 881.82 39.7329 888.552 39.5472C928.768 39.5472 944.983 57.8235 946.463 63.744V167.867H927.803C925.689 167.902 923.59 167.511 921.631 166.718C919.671 165.925 917.891 164.746 916.396 163.252C914.901 161.757 913.722 159.976 912.93 158.016C912.137 156.057 911.746 153.957 911.781 151.843V87.4903C911.781 78.4165 908.692 65.8033 889.581 65.8033C886.644 65.5234 883.68 65.8884 880.898 66.8728C878.117 67.8573 875.583 69.4373 873.475 71.5026C871.367 73.568 869.735 76.0687 868.694 78.8302C867.653 81.5916 867.227 84.5471 867.446 87.4903L867.318 167.867Z" fill="white"/>
<path d="M955.472 63.6796V167.739L1024 115.741L955.472 63.6796Z" fill="#0099D8"/>
<path d="M612.573 211.756C615.553 213.014 618.181 214.98 620.23 217.484C621.908 219.547 623.234 221.874 624.155 224.369C625.226 227.116 625.75 230.045 625.699 232.993C625.686 236.998 624.669 240.937 622.739 244.447C621.732 246.357 620.354 248.047 618.686 249.417C617.017 250.788 615.092 251.811 613.023 252.427C616.364 253.584 619.205 255.857 621.066 258.863C622.895 262.895 623.712 267.313 623.447 271.733V277.203C623.439 279.773 623.676 282.337 624.155 284.861C624.297 285.821 624.654 286.737 625.2 287.539C625.746 288.342 626.467 289.01 627.308 289.495V291.554H608.326C607.811 289.752 607.425 288.272 607.232 287.178C606.767 284.847 606.53 282.476 606.524 280.099V272.505C606.909 268.818 605.949 265.116 603.822 262.08C601.009 260.002 597.517 259.059 594.041 259.442H577.247V291.618H560.517V209.632H599.703C604.087 209.55 608.448 210.27 612.573 211.756ZM577.247 223.854V245.863H595.65C598.454 245.997 601.256 245.559 603.886 244.576C605.523 243.689 606.857 242.333 607.717 240.682C608.577 239.03 608.924 237.159 608.712 235.309C608.963 233.372 608.654 231.403 607.821 229.635C606.989 227.867 605.668 226.375 604.015 225.335C601.535 224.207 598.819 223.699 596.1 223.854H577.247Z" fill="white"/>
<path d="M702.142 224.176H658.837V241.552H698.603V255.774H658.837V276.817H704.137V291.554H642.107V209.697H702.142V224.176Z" fill="white"/>
<path d="M742.551 209.632H761.855L790.811 291.554H772.15L766.745 274.758H736.76L731.226 291.554H713.338L742.551 209.632ZM741.393 260.6H762.37L752.01 228.424L741.393 260.6Z" fill="white"/>
<path d="M806.125 218.191C809.916 214.692 814.376 211.998 819.238 210.271C824.099 208.545 829.26 207.822 834.408 208.147C839.556 208.472 844.586 209.838 849.191 212.161C853.797 214.485 857.884 217.718 861.205 221.666C864.457 226.129 866.396 231.412 866.803 236.918H849.687C848.981 233.68 847.551 230.644 845.505 228.037C843.796 226.192 841.695 224.754 839.356 223.83C837.017 222.905 834.5 222.518 831.992 222.696C829.145 222.609 826.324 223.256 823.8 224.575C821.276 225.894 819.133 227.839 817.578 230.225C813.687 236.621 811.846 244.054 812.302 251.526C811.738 258.842 813.69 266.13 817.836 272.184C819.494 274.357 821.638 276.112 824.096 277.308C826.554 278.504 829.259 279.107 831.992 279.069C834.542 279.216 837.09 278.756 839.428 277.727C841.766 276.698 843.826 275.129 845.44 273.149C847.45 270.298 848.892 267.086 849.687 263.689H866.674C865.504 272.009 861.532 279.682 855.414 285.44C849.081 291.154 840.773 294.178 832.249 293.871C827.112 294.129 821.981 293.241 817.229 291.271C812.477 289.3 808.222 286.298 804.774 282.48C797.683 273.679 794.127 262.551 794.8 251.269C794.388 245.279 795.178 239.267 797.123 233.587C799.068 227.906 802.128 222.672 806.125 218.191Z" fill="white"/>
<path d="M880.251 291.554V209.697H897.239V240.908H929.09V209.697H946.077V291.554H929.09V255.001H897.239V291.554H880.251Z" fill="white"/>
<path d="M971.622 220.315H981.403C983.768 220.218 986.077 221.05 987.838 222.632C988.934 223.802 989.553 225.34 989.575 226.943C989.575 230.869 986.744 233.379 982.754 233.379L990.476 243.289H988.288L980.824 233.636H973.231V243.289H971.622V220.315ZM981.339 232.607C985.264 232.607 988.159 230.676 988.159 227.33C988.159 224.241 985.65 222.246 981.725 222.246H973.746V232.607H981.339Z" fill="white"/>
<path d="M979.987 255.452C975.423 255.452 970.962 254.096 967.17 251.555C963.377 249.015 960.425 245.406 958.687 241.185C956.95 236.964 956.505 232.322 957.409 227.847C958.314 223.373 960.527 219.269 963.768 216.054C967.009 212.84 971.132 210.661 975.613 209.794C980.094 208.927 984.732 209.411 988.937 211.185C993.143 212.958 996.727 215.941 999.235 219.755C1001.74 223.569 1003.06 228.042 1003.02 232.607C1002.96 238.678 1000.5 244.479 996.19 248.754C991.879 253.029 986.059 255.435 979.987 255.452ZM979.987 210.405C975.703 210.393 971.51 211.647 967.935 214.01C964.361 216.373 961.564 219.74 959.895 223.687C958.227 227.634 957.762 231.986 958.558 236.197C959.354 240.408 961.376 244.289 964.37 247.355C967.364 250.421 971.197 252.533 975.387 253.428C979.578 254.323 983.939 253.959 987.924 252.384C991.908 250.808 995.339 248.091 997.785 244.572C1000.23 241.054 1001.58 236.891 1001.67 232.607C1001.7 229.739 1001.16 226.895 1000.08 224.238C999.001 221.581 997.409 219.163 995.393 217.124C993.378 215.084 990.979 213.464 988.335 212.355C985.692 211.246 982.854 210.67 979.987 210.662V210.405Z" fill="white"/>
</g>
<defs>
<clipPath id="clip0_301_4362">
<rect width="1024" height="292.935" fill="white" transform="translate(0 0.935333)"/>
</clipPath>
</defs>
</svg>
